# xmcd CD database file
#
# Track frame offsets:
#	150
#	30947
#	63910
#	93972
#	112632
#	135030
#	168670
#	205985
#
# Disc length: 2924 seconds
#
# Revision: 0
# Processed by: cddbd v1.5.2PL0 Copyright (c) Steve Scherf et al.
# Submitted via: CDex 1.51
#
DISCID=550b6a08
DTITLE=Takehiro Honda - Back On My Fingers
DYEAR=1990
DGENRE=Jazz
TTITLE0=Snap Step
TTITLE1=Longing
TTITLE2=Balmy Breeze
TTITLE3=Old Folks
TTITLE4=Tell Me, Like You Mean It
TTITLE5=Rippling
TTITLE6=What Do You Know?
TTITLE7=Wmbo Calipso
EXTD=YEAR: 1990
EXTT0=
EXTT1=
EXTT2=
EXTT3=
EXTT4=
EXTT5=
EXTT6=
EXTT7=
PLAYORDER=
